<?xml version="1.0" encoding="utf-8"?>
<!DOCTYPE svg PUBLIC "-//W3C//DTD SVG 1.1//EN" "http://www.w3.org/Graphics/SVG/1.1/DTD/svg11.dtd">
<svg version="1.1" baseProfile="full" 
	xmlns="http://www.w3.org/2000/svg"
	xmlns:xlink="http://www.w3.org/1999/xlink"
	xmlns:ev="http://www.w3.org/2001/xml-events"
	width="9px" height="12px">
<path fill="rgb(255,255,255)" fill-rule="evenodd" d="M8.44201 5.80516 C8.44201 5.80516 8.42825 5.81865 8.42825 5.81865 C8.42825 5.81865 8.44017 5.83032 8.44017 5.83032 C8.44017 5.83032 6.95124 7.28895 6.95124 7.28895 C6.95124 7.28895 6.93935 7.2773 6.93935 7.2773 C6.93935 7.2773 2.43309 11.692 2.43309 11.692 C2.43309 11.692 0.930874 10.2203 0.930874 10.2203 C0.930874 10.2203 5.43711 5.80558 5.43711 5.80558 C5.43711 5.80558 0.995485 1.45419 0.995485 1.45419 C0.995485 1.45419 2.48435 -0.00443566 2.48435 -0.00443566 C2.48435 -0.00443566 6.926 4.34693 6.926 4.34693 C6.926 4.34693 6.9398 4.33342 6.9398 4.33342 C6.9398 4.33342 8.44201 5.80516 8.44201 5.80516 Z"/>
</svg>