<?xml version="1.0" encoding="utf-8"?>
<!DOCTYPE svg PUBLIC "-//W3C//DTD SVG 1.1//EN" "http://www.w3.org/Graphics/SVG/1.1/DTD/svg11.dtd">
<svg version="1.1" baseProfile="full" 
	xmlns="http://www.w3.org/2000/svg"
	xmlns:xlink="http://www.w3.org/1999/xlink"
	xmlns:ev="http://www.w3.org/2001/xml-events"
	width="9px" height="12px">
<path opacity="0.501961" fill="rgb(203,165,121)" fill-rule="evenodd" d="M8.44201 5.80498 C8.44201 5.80498 8.42825 5.81847 8.42825 5.81847 C8.42825 5.81847 8.44017 5.83015 8.44017 5.83015 C8.44017 5.83015 6.95124 7.28889 6.95124 7.28889 C6.95124 7.28889 6.9393 7.2772 6.9393 7.2772 C6.9393 7.2772 2.43309 11.692 2.43309 11.692 C2.43309 11.692 0.930874 10.2202 0.930874 10.2202 C0.930874 10.2202 5.43714 5.80558 5.43714 5.80558 C5.43714 5.80558 0.995485 1.45425 0.995485 1.45425 C0.995485 1.45425 2.48435 -0.00449336 2.48435 -0.00449336 C2.48435 -0.00449336 6.9261 4.34689 6.9261 4.34689 C6.9261 4.34689 6.9398 4.33348 6.9398 4.33348 C6.9398 4.33348 8.44201 5.80498 8.44201 5.80498 Z"/>
</svg>