<?xml version="1.0" encoding="utf-8"?>
<!DOCTYPE svg PUBLIC "-//W3C//DTD SVG 1.1//EN" "http://www.w3.org/Graphics/SVG/1.1/DTD/svg11.dtd">
<svg version="1.1" baseProfile="full" 
	xmlns="http://www.w3.org/2000/svg"
	xmlns:xlink="http://www.w3.org/1999/xlink"
	xmlns:ev="http://www.w3.org/2001/xml-events"
	width="16px" height="16px">
<path fill="rgb(203,165,121)" fill-rule="evenodd" d="M3.13206 0.0021057 C2.86824 0.0021057 2.58832 0.0822622 2.34532 0.251495 C2.32198 0.268189 -0.0241394 1.94306 0.00698853 2.91335 C0.0936584 5.63893 2.73434 8.842 4.93451 11.049 C7.1346 13.2562 10.3283 15.9053 13.0567 15.9927 C13.0567 15.9927 13.079 15.9927 13.079 15.9927 C14.0342 15.9927 15.7135 13.6697 15.7295 13.6468 C16.1701 13.0152 16.0094 12.3206 15.6083 12.0382 C15.3643 11.8664 12.6939 10.0855 12.3668 9.88492 C12.2241 9.7975 12.0503 9.75456 11.8609 9.75456 C11.6171 9.75456 11.3469 9.82592 11.083 9.96508 C10.8259 10.1007 10.0474 10.5452 9.66672 10.7635 C9.33125 10.5271 8.54298 9.92163 7.30099 8.67493 C6.06686 7.43767 5.45781 6.64082 5.22076 6.30235 C5.43782 5.92068 5.8804 5.13976 6.01483 4.88298 C6.26988 4.39873 6.29865 3.91473 6.09174 3.5885 C5.89742 3.281 4.12915 0.622713 3.94658 0.369755 C3.77477 0.13107 3.46661 0.0021057 3.13206 0.0021057 C3.13206 0.0021057 3.13206 0.0021057 3.13206 0.0021057 Z"/>
</svg>