<?xml version="1.0" encoding="UTF-8" standalone="no"?>
<!-- Created with Inkscape (http://www.inkscape.org/) -->

<svg
   xmlns:dc="http://purl.org/dc/elements/1.1/"
   xmlns:cc="http://creativecommons.org/ns#"
   xmlns:rdf="http://www.w3.org/1999/02/22-rdf-syntax-ns#"
   xmlns:svg="http://www.w3.org/2000/svg"
   xmlns="http://www.w3.org/2000/svg"
   xmlns:sodipodi="http://sodipodi.sourceforge.net/DTD/sodipodi-0.dtd"
   xmlns:inkscape="http://www.inkscape.org/namespaces/inkscape"
   id="svg2"
   version="1.1"
   inkscape:version="0.48.5 r10040"
   width="201.2"
   height="57.860125"
   xml:space="preserve"
   sodipodi:docname="Vector Smart Object1.ai"><metadata
     id="metadata8"><rdf:RDF><cc:Work
         rdf:about=""><dc:format>image/svg+xml</dc:format><dc:type
           rdf:resource="http://purl.org/dc/dcmitype/StillImage" /><dc:title></dc:title></cc:Work></rdf:RDF></metadata><defs
     id="defs6"><clipPath
       clipPathUnits="userSpaceOnUse"
       id="clipPath20"><path
         d="m 0,46.288 160.96,0 L 160.96,0 0,0 0,46.288 z"
         id="path22" /></clipPath></defs><sodipodi:namedview
     pagecolor="#ffffff"
     bordercolor="#666666"
     borderopacity="1"
     objecttolerance="10"
     gridtolerance="10"
     guidetolerance="10"
     inkscape:pageopacity="0"
     inkscape:pageshadow="2"
     inkscape:window-width="640"
     inkscape:window-height="480"
     id="namedview4"
     showgrid="false"
     inkscape:zoom="1.8389662"
     inkscape:cx="100.6"
     inkscape:cy="28.930063"
     inkscape:window-x="0"
     inkscape:window-y="0"
     inkscape:window-maximized="0"
     inkscape:current-layer="g10" /><g
     id="g10"
     inkscape:groupmode="layer"
     inkscape:label="Vector Smart Object1"
     transform="matrix(1.25,0,0,-1.25,0,57.860125)"><g
       id="g12"
       transform="translate(114.3452,16.8047)"><path
         d="m 0,0 1.636,0.023 0,-5.23 -1.544,0 0,3.825 -11.427,0 0,15.736 1.958,0 0,-14.354 7.396,0 0,14.354 1.981,0 L 0,0 z"
         style="fill:#d3a273;fill-opacity:1;fill-rule:nonzero;stroke:none"
         id="path14" /></g><g
       id="g16"><g
         id="g18"
         clip-path="url(#clipPath20)"><g
           id="g24"
           transform="translate(122.4844,25.5371)"><path
             d="m 0,0 c -0.538,0 -0.99,-0.101 -1.359,-0.3 -0.369,-0.2 -0.672,-0.469 -0.91,-0.806 -0.239,-0.338 -0.415,-0.73 -0.53,-1.175 -0.116,-0.446 -0.189,-0.907 -0.219,-1.382 l 5.737,0 c 0,0.537 -0.046,1.032 -0.138,1.485 -0.092,0.453 -0.242,0.842 -0.45,1.164 C 1.924,-0.691 1.647,-0.442 1.302,-0.266 0.957,-0.089 0.522,0 0,0 m -0.046,1.382 c 0.753,0 1.386,-0.1 1.901,-0.299 0.514,-0.2 0.941,-0.461 1.279,-0.784 0.337,-0.322 0.599,-0.684 0.783,-1.082 0.184,-0.4 0.319,-0.8 0.403,-1.198 0.084,-0.4 0.135,-0.776 0.15,-1.13 0.015,-0.353 0.023,-0.645 0.023,-0.875 l 0,-0.898 -7.534,0 c 0,-0.523 0.046,-1.022 0.138,-1.498 0.092,-0.476 0.261,-0.895 0.507,-1.256 0.246,-0.361 0.576,-0.649 0.991,-0.864 0.415,-0.215 0.936,-0.322 1.567,-0.322 0.66,0 1.263,0.069 1.808,0.207 0.545,0.138 1.141,0.338 1.786,0.599 l 0.46,-1.198 C 3.541,-9.569 2.861,-9.831 2.177,-10 c -0.683,-0.168 -1.402,-0.253 -2.154,-0.253 -0.998,0 -1.82,0.153 -2.465,0.461 -0.645,0.307 -1.156,0.718 -1.532,1.232 -0.377,0.515 -0.638,1.122 -0.784,1.821 -0.146,0.698 -0.219,1.44 -0.219,2.223 0,0.337 0.023,0.718 0.07,1.141 0.046,0.422 0.134,0.848 0.265,1.278 0.13,0.43 0.311,0.856 0.541,1.279 0.231,0.422 0.53,0.795 0.899,1.117 0.368,0.323 0.809,0.584 1.325,0.784 0.514,0.199 1.125,0.299 1.831,0.299"
             style="fill:#d3a273;fill-opacity:1;fill-rule:nonzero;stroke:none"
             id="path26" /></g><g
           id="g28"
           transform="translate(136.6768,15.4224)"><path
             d="m 0,0 0,5.276 -5.437,0 0,-5.276 -1.867,0 0,11.244 1.889,0 0,-4.47 5.415,0 0,4.47 1.866,0 L 1.866,0 0,0 z"
             style="fill:#d3a273;fill-opacity:1;fill-rule:nonzero;stroke:none"
             id="path30" /></g><g
           id="g32"
           transform="translate(144.0728,25.2144)"><path
             d="m 0,0 -3.963,0 0,1.452 9.769,0 0,-1.452 -3.94,0 0,-9.792 L 0,-9.792 0,0 z"
             style="fill:#d3a273;fill-opacity:1;fill-rule:nonzero;stroke:none"
             id="path34" /></g><g
           id="g36"
           transform="translate(153.2881,17.4063)"><path
             d="M 0,0 C 0.123,-0.093 0.293,-0.186 0.508,-0.277 0.725,-0.37 0.96,-0.458 1.214,-0.543 1.469,-0.628 1.735,-0.693 2.012,-0.74 2.29,-0.786 2.56,-0.809 2.822,-0.809 c 0.401,0 0.779,0.074 1.134,0.219 0.354,0.147 0.666,0.401 0.936,0.763 0.27,0.362 0.483,0.839 0.636,1.432 C 5.683,2.198 5.76,2.933 5.76,3.812 5.76,4.597 5.69,5.248 5.551,5.763 5.413,6.279 5.22,6.691 4.973,6.999 4.726,7.307 4.43,7.526 4.083,7.658 3.736,7.789 3.354,7.854 2.938,7.854 2.707,7.854 2.448,7.819 2.163,7.75 1.877,7.681 1.596,7.588 1.318,7.473 1.041,7.357 0.786,7.234 0.555,7.104 0.324,6.972 0.139,6.837 0,6.699 L 0,0 z m 0.069,8.177 c 0.463,0.368 0.99,0.664 1.583,0.886 0.593,0.223 1.19,0.334 1.791,0.334 0.802,0 1.475,-0.149 2.022,-0.448 C 6.012,8.649 6.447,8.242 6.771,7.728 7.094,7.212 7.325,6.613 7.464,5.931 7.603,5.247 7.672,4.528 7.672,3.776 7.672,2.947 7.591,2.171 7.43,1.449 7.268,0.727 7.01,0.098 6.655,-0.44 6.301,-0.978 5.835,-1.404 5.257,-1.719 4.679,-2.034 3.975,-2.191 3.143,-2.191 c -0.216,0 -0.458,0.011 -0.728,0.034 -0.269,0.023 -0.547,0.061 -0.832,0.113 -0.285,0.053 -0.566,0.128 -0.843,0.227 -0.278,0.097 -0.532,0.23 -0.763,0.396 l 0,-5.355 -1.843,0 0,16.036 1.797,0 0.023,-0.991 0.115,-0.092 z"
             style="fill:#d3a273;fill-opacity:1;fill-rule:nonzero;stroke:none"
             id="path38" /></g><g
           id="g40"
           transform="translate(6.9121,31.458)"><path
             d="m 0,0 c 0.86,0 1.62,-0.065 2.281,-0.196 0.66,-0.131 1.228,-0.28 1.705,-0.449 L 3.571,-2.097 c -0.63,0.215 -1.229,0.358 -1.797,0.427 -0.568,0.069 -1.099,0.103 -1.59,0.103 -0.86,0 -1.609,-0.153 -2.246,-0.46 -0.638,-0.308 -1.164,-0.749 -1.578,-1.326 -0.415,-0.575 -0.726,-1.278 -0.934,-2.107 -0.207,-0.83 -0.311,-1.76 -0.311,-2.788 0,-0.906 0.073,-1.747 0.219,-2.523 0.146,-0.776 0.411,-1.452 0.795,-2.027 0.384,-0.577 0.906,-1.03 1.567,-1.36 0.66,-0.33 1.505,-0.495 2.534,-0.495 0.2,0 0.453,0.011 0.76,0.034 0.307,0.023 0.63,0.058 0.968,0.104 0.338,0.046 0.684,0.104 1.037,0.173 0.353,0.069 0.683,0.15 0.991,0.242 l 0.368,-1.382 c -0.276,-0.108 -0.595,-0.208 -0.956,-0.3 -0.361,-0.093 -0.741,-0.169 -1.14,-0.231 -0.4,-0.061 -0.803,-0.111 -1.21,-0.149 -0.407,-0.039 -0.795,-0.058 -1.163,-0.058 -1.26,0 -2.32,0.192 -3.18,0.576 -0.86,0.384 -1.559,0.925 -2.097,1.624 -0.537,0.699 -0.925,1.541 -1.163,2.523 -0.238,0.983 -0.357,2.066 -0.357,3.249 0,0.568 0.042,1.164 0.126,1.786 0.085,0.622 0.231,1.239 0.438,1.854 0.208,0.614 0.484,1.198 0.83,1.751 0.346,0.553 0.771,1.041 1.279,1.463 0.507,0.422 1.109,0.76 1.808,1.014 C -1.732,-0.127 -0.921,0 0,0"
             style="fill:#d3a273;fill-opacity:1;fill-rule:nonzero;stroke:none"
             id="path42" /></g><g
           id="g44"
           transform="translate(16.6421,20.6064)"><path
             d="m 0,0 c -0.768,-0.031 -1.336,-0.223 -1.705,-0.576 -0.369,-0.354 -0.553,-0.815 -0.553,-1.382 0,-0.661 0.161,-1.152 0.484,-1.475 0.322,-0.323 0.852,-0.484 1.589,-0.484 0.492,0 0.995,0.127 1.51,0.38 0.514,0.254 1.032,0.619 1.555,1.095 l 0,2.626 L 0,0 z m 4.7,-3.779 1.521,0 0.115,-1.106 C 6.059,-5.023 5.74,-5.134 5.379,-5.219 5.019,-5.303 4.685,-5.345 4.377,-5.345 3.932,-5.345 3.586,-5.253 3.341,-5.069 3.095,-4.885 2.957,-4.5 2.926,-3.917 L 2.903,-3.894 C 2.473,-4.263 2.058,-4.547 1.659,-4.746 1.259,-4.946 0.895,-5.092 0.564,-5.184 0.234,-5.276 -0.065,-5.33 -0.334,-5.345 -0.603,-5.36 -0.822,-5.368 -0.991,-5.368 c -0.645,0 -1.178,0.107 -1.601,0.322 -0.423,0.215 -0.757,0.484 -1.002,0.807 -0.246,0.322 -0.419,0.671 -0.518,1.048 -0.101,0.376 -0.151,0.726 -0.151,1.048 0,0.983 0.35,1.77 1.049,2.362 0.698,0.591 1.77,0.933 3.214,1.025 l 2.88,0.185 0,0.714 C 2.88,3.08 2.711,3.74 2.373,4.124 2.035,4.508 1.397,4.7 0.461,4.7 -0.092,4.7 -0.668,4.646 -1.267,4.539 -1.866,4.431 -2.45,4.277 -3.018,4.078 l -0.415,1.267 c 0.645,0.292 1.351,0.514 2.12,0.668 0.768,0.154 1.505,0.231 2.211,0.231 1.183,0 2.113,-0.277 2.789,-0.83 C 4.362,4.861 4.7,3.894 4.7,2.511 l 0,-6.29 z"
             style="fill:#d3a273;fill-opacity:1;fill-rule:nonzero;stroke:none"
             id="path46" /></g><g
           id="g48"
           transform="translate(29.6143,18.9937)"><path
             d="m 0,0 c 0.153,0.507 0.33,1.075 0.53,1.705 0.199,0.629 0.403,1.279 0.611,1.947 0.207,0.668 0.418,1.344 0.633,2.027 0.215,0.683 0.43,1.348 0.645,1.993 l 1.912,0 C 3.978,6.597 3.617,5.499 3.249,4.377 2.88,3.256 2.507,2.131 2.131,1.002 1.754,-0.127 1.378,-1.248 1.002,-2.362 c -0.377,-1.114 -0.741,-2.2 -1.094,-3.26 -0.277,-0.891 -0.668,-1.597 -1.176,-2.12 -0.506,-0.521 -1.197,-0.783 -2.073,-0.783 -0.169,0.016 -0.442,0.035 -0.818,0.058 -0.377,0.023 -0.91,0.134 -1.601,0.334 l 0.299,1.313 c 0.415,-0.092 0.757,-0.157 1.026,-0.196 0.268,-0.038 0.533,-0.057 0.795,-0.057 0.445,0 0.813,0.108 1.105,0.323 0.292,0.214 0.538,0.629 0.738,1.243 l 0.645,2.005 -0.899,0 -3.525,11.174 1.821,0 2.303,-7.718 c 0.154,-0.492 0.28,-0.941 0.381,-1.348 0.099,-0.407 0.18,-0.718 0.241,-0.933 l 0.116,0 L 0,0 z"
             style="fill:#d3a273;fill-opacity:1;fill-rule:nonzero;stroke:none"
             id="path50" /></g><g
           id="g52"
           transform="translate(43.4634,15.4224)"><path
             d="m 0,0 0,5.276 -5.437,0 0,-5.276 -1.867,0 0,11.244 1.889,0 0,-4.47 5.415,0 0,4.47 1.866,0 L 1.866,0 0,0 z"
             style="fill:#d3a273;fill-opacity:1;fill-rule:nonzero;stroke:none"
             id="path54" /></g><g
           id="g56"
           transform="translate(52.082,20.6064)"><path
             d="m 0,0 c -0.768,-0.031 -1.336,-0.223 -1.705,-0.576 -0.369,-0.354 -0.553,-0.815 -0.553,-1.382 0,-0.661 0.161,-1.152 0.484,-1.475 0.322,-0.323 0.852,-0.484 1.589,-0.484 0.492,0 0.995,0.127 1.51,0.38 0.514,0.254 1.032,0.619 1.555,1.095 l 0,2.626 L 0,0 z m 4.7,-3.779 1.521,0 0.115,-1.106 C 6.059,-5.023 5.74,-5.134 5.379,-5.219 5.019,-5.303 4.684,-5.345 4.377,-5.345 3.932,-5.345 3.586,-5.253 3.341,-5.069 3.095,-4.885 2.957,-4.5 2.926,-3.917 L 2.903,-3.894 C 2.473,-4.263 2.058,-4.547 1.659,-4.746 1.259,-4.946 0.895,-5.092 0.564,-5.184 0.234,-5.276 -0.065,-5.33 -0.334,-5.345 -0.603,-5.36 -0.822,-5.368 -0.991,-5.368 c -0.645,0 -1.178,0.107 -1.601,0.322 -0.423,0.215 -0.757,0.484 -1.002,0.807 -0.246,0.322 -0.419,0.671 -0.519,1.048 -0.1,0.376 -0.15,0.726 -0.15,1.048 0,0.983 0.349,1.77 1.049,2.362 0.698,0.591 1.77,0.933 3.214,1.025 l 2.88,0.185 0,0.714 C 2.88,3.08 2.711,3.74 2.373,4.124 2.035,4.508 1.397,4.7 0.461,4.7 -0.092,4.7 -0.668,4.646 -1.267,4.539 -1.866,4.431 -2.451,4.277 -3.018,4.078 l -0.415,1.267 c 0.645,0.292 1.351,0.514 2.12,0.668 0.768,0.154 1.505,0.231 2.211,0.231 1.183,0 2.112,-0.277 2.789,-0.83 C 4.362,4.861 4.7,3.894 4.7,2.511 l 0,-6.29 z"
             style="fill:#d3a273;fill-opacity:1;fill-rule:nonzero;stroke:none"
             id="path58" /></g><g
           id="g60"
           transform="translate(74.8467,18.9258)"><path
             d="m 0,0 c 7.327,-7.328 0.619,-18.926 0.619,-18.926 0,0 3.261,9.785 -4.038,17.084 -7.299,7.299 -2.112,17.644 -2.112,17.644 0,0 -1.796,-8.475 5.531,-15.802"
             style="fill:#d3a273;fill-opacity:1;fill-rule:nonzero;stroke:none"
             id="path62" /></g><g
           id="g64"
           transform="translate(82.0483,24.7061)"><path
             d="m 0,0 c 7.327,-7.328 0.619,-18.926 0.619,-18.926 1.295,3.885 1.967,11.08 -4.038,17.084 -7.299,7.299 -2.112,17.644 -2.112,17.644 0,0 -1.795,-8.475 5.531,-15.802"
             style="fill:#d3a273;fill-opacity:1;fill-rule:nonzero;stroke:none"
             id="path66" /></g><g
           id="g68"
           transform="translate(89.2505,30.4863)"><path
             d="m 0,0 c 7.327,-7.328 0.619,-18.926 0.619,-18.926 2.589,7.77 0.672,12.374 -4.038,17.084 -7.299,7.299 -2.112,17.644 -2.112,17.644 0,0 -1.796,-8.475 5.531,-15.802"
             style="fill:#d3a273;fill-opacity:1;fill-rule:nonzero;stroke:none"
             id="path70" /></g></g></g></g></svg>