<?xml version="1.0" encoding="utf-8"?>
<!DOCTYPE svg PUBLIC "-//W3C//DTD SVG 1.1//EN" "http://www.w3.org/Graphics/SVG/1.1/DTD/svg11.dtd">
<svg version="1.1" baseProfile="full" 
	xmlns="http://www.w3.org/2000/svg"
	xmlns:xlink="http://www.w3.org/1999/xlink"
	xmlns:ev="http://www.w3.org/2001/xml-events"
	width="16px" height="12px">
<path fill="rgb(203,165,121)" fill-rule="evenodd" d="M14.75 11.5074 C14.75 11.5074 1.74995 11.5074 1.74995 11.5074 C0.921555 11.5074 -7.62937e-005 10.5861 -7.62937e-005 9.75734 C-7.62937e-005 9.75734 -7.62937e-005 1.75737 -7.62937e-005 1.75737 C-7.62937e-005 1.71631 0.0266365 1.68841 0.0310416 1.64935 C0.0524933 1.75308 0.0863318 1.85745 0.172577 1.93221 C0.172577 1.93221 7.67258 7.93209 7.67258 7.93209 C7.76657 8.01378 7.8833 8.05443 7.99995 8.05443 C8.11668 8.05443 8.23334 8.01378 8.32733 7.93209 C8.32733 7.93209 15.8276 1.93221 15.8276 1.93221 C15.921 1.85118 15.9636 1.73901 15.9809 1.62563 C15.9839 1.67274 15.9999 1.70729 15.9999 1.75737 C15.9999 1.75737 15.9999 9.75734 15.9999 9.75734 C15.9999 10.5861 15.5786 11.5074 14.75 11.5074 Z M15.8779 1.22686 C15.6963 1.01761 15.3808 0.996332 15.1723 1.1764 C15.1723 1.1764 7.99995 6.89261 7.99995 6.89261 C7.99995 6.89261 0.827332 1.1764 0.827332 1.1764 C0.652652 1.02507 0.406969 1.02413 0.223964 1.14819 C0.543407 0.729797 1.16276 0.507365 1.74995 0.507365 C1.74995 0.507365 14.75 0.507365 14.75 0.507365 C15.4684 0.507365 15.8611 0.843333 15.958 1.46755 C15.9421 1.38366 15.9378 1.29601 15.8779 1.22686 Z"/>
</svg>