<?xml version="1.0" encoding="utf-8"?>
<!DOCTYPE svg PUBLIC "-//W3C//DTD SVG 1.1//EN" "http://www.w3.org/Graphics/SVG/1.1/DTD/svg11.dtd">
<svg version="1.1" baseProfile="full" 
	xmlns="http://www.w3.org/2000/svg"
	xmlns:xlink="http://www.w3.org/1999/xlink"
	xmlns:ev="http://www.w3.org/2001/xml-events"
	width="16px" height="16px">
<defs>
<path id="symbol0" fill-rule="evenodd" d="M15 16 C15 16 1.00008 16 1.00008 16 C0.44772 16 8.86865e-005 15.5524 8.86865e-005 15 C8.86865e-005 15 8.86865e-005 14.0001 8.86865e-005 14.0001 C8.86865e-005 14.0001 0.10088 14.0001 0.10088 14.0001 C0.503867 11.6112 2.31346 9.7153 4.64836 9.17235 C4.24167 8.54599 4.00004 7.80232 4.00004 7.00006 C4.00004 7.00006 4.00004 4.0001 4.00004 4.0001 C4.00004 1.79083 5.79086 0.000118961 8.00005 0.000118961 C10.2092 0.000118961 12.0001 1.79083 12.0001 4.0001 C12.0001 4.0001 12.0001 7.00006 12.0001 7.00006 C12.0001 7.80232 11.7584 8.54599 11.3518 9.17235 C13.6866 9.7153 15.4963 11.6112 15.8993 14.0001 C15.8993 14.0001 16 14.0001 16 14.0001 C16 14.0001 16 15 16 15 C16 15.5524 15.5524 16 15 16 Z M10 4.0001 C10 2.89552 9.10464 2.00005 8.00005 2.00005 C6.89545 2.00005 6.00007 2.89552 6.00007 4.0001 C6.00007 4.0001 6.00007 7.00006 6.00007 7.00006 C6.00007 8.10463 6.89545 8.99999 8.00005 8.99999 C9.10464 8.99999 10 8.10463 10 7.00006 C10 7.00006 10 4.0001 10 4.0001 Z M10 11.0002 C10 11.0002 6.00007 11.0002 6.00007 11.0002 C4.13838 11.0002 2.58771 12.2779 2.1415 14.0001 C2.1415 14.0001 13.8586 14.0001 13.8586 14.0001 C13.4126 12.2779 11.8618 11.0002 10 11.0002 Z"/>
</defs>
<g>
<use xlink:href="#symbol0" fill="rgb(255,255,255)"/>
<use xlink:href="#symbol0" fill="rgb(203,165,121)"/>
</g>
</svg>